<svg width="34" height="37" viewBox="0 0 34 37" fill="none" xmlns="http://www.w3.org/2000/svg">
<path d="M18.0073 0.541608L25.0147 2.67429C31.4517 4.63337 35.0484 11.3324 33.0483 17.637L27.8821 36.8611L8.58648 30.236C2.14951 28.2769 -1.44722 21.5779 0.552984 15.2733L2.73044 8.40996C4.7306 2.10531 11.5703 -1.41745 18.0073 0.541608Z" fill="url(#paint0_linear_2_798)"/>
<path fill-rule="evenodd" clip-rule="evenodd" d="M13.5884 12.3801C13.2499 12.5715 13.1338 12.9955 13.3293 13.3271L16.0947 18.0184C16.1221 18.0647 16.1827 18.0806 16.2301 18.0539C16.2956 18.0168 16.3777 18.0639 16.3787 18.138C16.3794 18.1923 16.425 18.2366 16.4805 18.2359L19.964 18.1906C20.3548 18.1854 20.6675 17.871 20.6623 17.4881C20.6571 17.1053 20.336 16.7991 19.9452 16.8042L18.6835 16.8207C17.6661 16.8339 16.7208 16.3075 16.2119 15.4443L14.5553 12.6339C14.3598 12.3022 13.9269 12.1887 13.5884 12.3801Z" fill="white"/>
<path fill-rule="evenodd" clip-rule="evenodd" d="M20.1288 7.75071C20.2396 7.19454 20.8305 6.86159 21.3531 7.10447C23.1768 7.9522 24.7655 9.33213 25.8512 11.1739C28.6973 16.0021 27.0083 22.1758 22.0788 24.9634C17.1492 27.7509 10.8458 26.0967 7.99973 21.2685C5.15364 16.4404 6.84263 10.2666 11.7722 7.47899C13.1932 6.67545 14.7283 6.24101 16.2618 6.14532C16.8414 6.10908 17.2644 6.63669 17.1532 7.19501C17.0655 7.63535 16.6687 7.94583 16.2122 7.98338C15.0132 8.08225 13.817 8.43487 12.706 9.06313C8.66976 11.3456 7.28687 16.4006 9.61712 20.3539C11.9475 24.3072 17.1087 25.6617 21.145 23.3792C25.1812 21.0968 26.5641 16.0418 24.2338 12.0885C23.3752 10.632 22.1324 9.52828 20.7032 8.82924C20.2918 8.62803 20.0407 8.19274 20.1288 7.75071Z" fill="white"/>
<path d="M20.1318 18.1729L20.1272 17.8288L20.1318 18.1729ZM20.1131 16.7865L20.1177 17.1306L20.1131 16.7865ZM14.7231 12.6162L14.4188 12.7882L14.7231 12.6162ZM13.8014 13.1374C13.703 12.9703 13.7614 12.7569 13.9319 12.6605L13.5805 12.0645C13.074 12.3509 12.9004 12.9853 13.1929 13.4815L13.8014 13.1374ZM16.5669 17.8287L13.8014 13.1374L13.1929 13.4815L15.9582 18.1727L16.5669 17.8287ZM20.1272 17.8288L16.6436 17.8742L16.653 18.5623L20.1365 18.517L20.1272 17.8288ZM20.4788 17.4751C20.4815 17.6679 20.3241 17.8262 20.1272 17.8288L20.1365 18.517C20.7215 18.5094 21.1893 18.0389 21.1815 17.4659L20.4788 17.4751ZM20.1177 17.1306C20.3145 17.1281 20.4763 17.2823 20.4788 17.4751L21.1815 17.4659C21.1737 16.8931 20.6933 16.4349 20.1084 16.4425L20.1177 17.1306ZM18.8561 17.1471L20.1177 17.1306L20.1084 16.4425L18.8468 16.4589L18.8561 17.1471ZM14.4188 12.7882L16.0755 15.5987L16.6841 15.2547L15.0274 12.4441L14.4188 12.7882ZM13.9319 12.6605C14.1024 12.5641 14.3203 12.6213 14.4188 12.7882L15.0274 12.4441C14.7349 11.948 14.0871 11.778 13.5805 12.0645L13.9319 12.6605ZM16.1952 18.125C16.1985 18.3655 16.3997 18.5657 16.653 18.5623L16.6436 17.8742C16.7861 17.8723 16.8961 17.9839 16.8979 18.1158L16.1952 18.125ZM18.8468 16.4589C17.9564 16.4704 17.1293 16.0099 16.6841 15.2547L16.0755 15.5987C16.6479 16.5698 17.7114 17.162 18.8561 17.1471L18.8468 16.4589ZM16.5735 18.3343C16.3993 18.4329 16.1977 18.3053 16.1952 18.125L16.8979 18.1158C16.8934 17.7872 16.5276 17.5656 16.2222 17.7382L16.5735 18.3343ZM15.9582 18.1727C16.0827 18.3838 16.3582 18.4561 16.5735 18.3343L16.2222 17.7382C16.3429 17.6699 16.4972 17.7105 16.5669 17.8287L15.9582 18.1727Z" fill="white"/>
<path d="M26.2528 11.4034C25.1182 9.47849 23.4567 8.03527 21.5499 7.14897L21.1482 7.97806C22.8887 8.78713 24.4048 10.1038 25.4414 11.8623L26.2528 11.4034ZM22.3089 25.8197C27.4625 22.9055 29.2283 16.4511 26.2528 11.4034L25.4414 11.8623C28.1582 16.471 26.5459 22.3642 21.8405 25.025L22.3089 25.8197ZM7.58991 21.9569C10.5653 27.0045 17.1553 28.734 22.3089 25.8197L21.8405 25.025C17.1349 27.6859 11.1181 26.1068 8.40133 21.4981L7.58991 21.9569ZM11.5338 7.54062C6.38023 10.4549 4.61447 16.9093 7.58991 21.9569L8.40133 21.4981C5.68467 16.8894 7.29691 10.9962 12.0024 8.33536L11.5338 7.54062ZM16.2279 6.14637C14.624 6.24646 13.0186 6.70104 11.5338 7.54062L12.0024 8.33536C13.3594 7.56796 14.8244 7.15355 16.2876 7.06217L16.2279 6.14637ZM12.9361 9.91949C13.9863 9.32578 15.1157 8.99293 16.2474 8.89967L16.1689 7.98518C14.9027 8.08948 13.6396 8.46204 12.4677 9.12476L12.9361 9.91949ZM10.0188 20.5835C7.81781 16.8497 9.12395 12.0752 12.9361 9.91949L12.4677 9.12476C8.20737 11.534 6.74761 16.8696 9.20731 21.0423L10.0188 20.5835ZM20.9066 23.4409C17.0944 25.5966 12.2197 24.3173 10.0188 20.5835L9.20731 21.0423C11.6671 25.2151 17.1148 26.6447 21.3751 24.2356L20.9066 23.4409ZM23.824 12.7769C26.025 16.5107 24.7188 21.2851 20.9066 23.4409L21.3751 24.2356C25.6355 21.8265 27.0951 16.4909 24.6354 12.3181L23.824 12.7769ZM20.4898 9.69871C21.8394 10.3588 23.0128 11.4007 23.824 12.7769L24.6354 12.3181C23.7296 10.7813 22.4173 9.61576 20.9084 8.87776L20.4898 9.69871ZM16.2876 7.06217C16.5243 7.04738 16.749 7.26666 16.6894 7.56618L17.6089 7.74193C17.7717 6.92472 17.1505 6.08879 16.2279 6.14637L16.2876 7.06217ZM20.9084 8.87776C20.6617 8.75698 20.5417 8.51288 20.5845 8.29763L19.6649 8.12188C19.5317 8.79068 19.9138 9.41698 20.4898 9.69871L20.9084 8.87776ZM16.6894 7.56618C16.6465 7.78069 16.443 7.96262 16.1689 7.98518L16.2474 8.89967C16.8862 8.84705 17.4762 8.40792 17.6089 7.74193L16.6894 7.56618ZM21.5499 7.14897C20.7184 6.76246 19.8272 7.30739 19.6649 8.12188L20.5845 8.29763C20.6439 7.99979 20.9344 7.87872 21.1482 7.97806L21.5499 7.14897Z" fill="white"/>
<defs>
<linearGradient id="paint0_linear_2_798" x1="61.7285" y1="-45.074" x2="9.32038" y2="72.424" gradientUnits="userSpaceOnUse">
<stop stop-color="#63F4FD"/>
<stop offset="0.67619" stop-color="#8274FE"/>
<stop offset="0.875084" stop-color="#7C2BFF"/>
</linearGradient>
</defs>
</svg>
