<svg width="22" height="23" viewBox="0 0 22 23" fill="none" xmlns="http://www.w3.org/2000/svg">
<path d="M4.34554 0.893555C1.97946 0.893555 0.0429688 2.83 0.0429688 5.19613V18.5478C0.0429688 20.9138 1.97942 22.8496 4.34554 22.8496H17.6972C20.0633 22.8496 21.999 20.9139 21.999 18.5478V5.19613C21.999 2.83005 20.0633 0.893555 17.6972 0.893555H4.34554ZM5.4277 4.51675C6.56218 4.51675 7.26098 5.26152 7.28255 6.2405C7.28255 7.19788 6.56214 7.96358 5.40576 7.96358H5.38447C4.27158 7.96358 3.55227 7.19792 3.55227 6.2405C3.55227 5.26154 4.29335 4.51675 5.42768 4.51675H5.4277ZM15.2042 9.09242C17.386 9.09242 19.0216 10.5185 19.0216 13.583V19.3039H15.7058V13.9666C15.7058 12.6253 15.2259 11.7103 14.026 11.7103C13.1099 11.7103 12.5639 12.327 12.3242 12.9228C12.2366 13.136 12.215 13.4337 12.215 13.7319V19.3039H8.89926C8.89926 19.3039 8.94278 10.2626 8.89926 9.3264H12.2157V10.7393C12.6564 10.0595 13.4445 9.0924 15.2042 9.0924V9.09242ZM3.74785 9.32712H7.06364V19.304H3.74785V9.32712Z" fill="#37434E"/>
</svg>
