<svg width="29" height="23" viewBox="0 0 29 23" fill="none" xmlns="http://www.w3.org/2000/svg">
<path d="M28.5888 3.00039C27.5701 3.4518 26.4757 3.75681 25.3252 3.89467C26.5123 3.18436 27.4004 2.06641 27.8238 0.749425C26.7085 1.41189 25.4879 1.87819 24.215 2.12806C23.359 1.21409 22.2252 0.608299 20.9896 0.404734C19.754 0.201169 18.4858 0.411222 17.3819 1.00228C16.2779 1.59334 15.4 2.53233 14.8843 3.67348C14.3687 4.81463 14.2443 6.09408 14.5303 7.3132C12.2705 7.19973 10.0597 6.61235 8.04151 5.58918C6.02333 4.56601 4.24283 3.12991 2.81559 1.37408C2.32758 2.2159 2.04697 3.19193 2.04697 4.2314C2.04643 5.16716 2.27686 6.08858 2.71784 6.91392C3.15882 7.73926 3.79669 8.443 4.57488 8.96268C3.67239 8.93397 2.78981 8.69011 2.00061 8.25141V8.32461C2.00052 9.63705 2.4545 10.9091 3.28553 11.9249C4.11655 12.9407 5.27343 13.6378 6.55987 13.8977C5.72266 14.1243 4.84492 14.1577 3.99292 13.9953C4.35588 15.1246 5.06289 16.1121 6.01496 16.8196C6.96704 17.5271 8.11653 17.9192 9.3025 17.9409C7.28925 19.5213 4.80289 20.3786 2.2434 20.3749C1.79001 20.375 1.337 20.3485 0.886719 20.2956C3.48475 21.966 6.50904 22.8525 9.59775 22.8491C20.0534 22.8491 25.7693 14.1893 25.7693 6.67878C25.7693 6.43478 25.7632 6.18833 25.7522 5.94432C26.864 5.14029 27.8237 4.14465 28.5863 3.00405L28.5888 3.00039Z" fill="#37434E"/>
</svg>
